<svg width="30" height="28" viewBox="0 0 30 28" fill="none" xmlns="http://www.w3.org/2000/svg">
<path d="M30 24.8889H0V28H30V24.8889ZM3 18.6667C3 19.4444 3.3 20.2222 3.9 20.8444C4.5 21.4667 5.25 21.7778 6 21.7778V4.66667C5.25 4.66667 4.5 4.97778 3.9 5.6C3.3 6.22222 3 7 3 7.77778V18.6667ZM17.25 4.66667H12.75C12.75 4.04444 12.9 3.42222 13.35 2.95556C13.8 2.48889 14.25 2.33333 15 2.33333C15.6 2.33333 16.2 2.48889 16.65 2.95556C16.95 3.42222 17.25 4.04444 17.25 4.66667ZM7.5 4.66667V21.7778H22.5V4.66667H19.5C19.5 3.42222 19.05 2.33333 18.15 1.4C17.25 0.466667 16.2 0 15 0C13.8 0 12.75 0.466667 11.85 1.4C10.95 2.33333 10.5 3.42222 10.5 4.66667H7.5ZM24 21.7778C24.75 21.7778 25.5 21.4667 26.1 20.8444C26.7 20.2222 27 19.4444 27 18.6667V7.77778C27 7 26.7 6.22222 26.1 5.6C25.5 4.97778 24.75 4.66667 24 4.66667V21.7778Z" fill="#3F96FD"/>
</svg>
